<svg xmlns="http://www.w3.org/2000/svg" version="1.1" xmlns:xlink="http://www.w3.org/1999/xlink" width="512" height="512" x="0" y="0" viewBox="0 0 512 512" style="enable-background:new 0 0 512 512" xml:space="preserve" class=""><g><path fill-rule="evenodd" d="M146.978 338.133c4.637 2.518 9.651 4.879 15.097 7.068 25.827 10.39 59.093 16.105 93.763 16.105 39.953 0 80.876-7.932 109.129-23.39v40.751c-.809 5.543-9.544 14.299-27.606 21.815-21.675 9.048-50.629 14.03-81.523 14.03-30.086 0-58.554-4.783-80.068-13.458-17.631-7.085-26.959-15.544-28.792-21.233zm272.878-2.443h-18.278V200.309c0-12.746-6.308-36.75-48.58-54.316-26.204-10.908-60.658-16.909-96.998-16.909s-70.848 6.001-97.051 16.909c-40.061 16.676-47.771 39.155-48.472 52.294h-.054V335.69H92.144c-50.844 0-92.145-41.328-92.145-92.129 0-41.964 29.655-79.62 70.524-89.546 8.681-2.108 14.558-10.191 13.911-19.103a120.299 120.299 0 0 1-.324-8.778c0-65.294 53.109-118.419 118.403-118.419 45.884 0 87.994 26.867 107.404 68.448a18.3 18.3 0 0 0 20.058 10.228 85.905 85.905 0 0 1 16.283-1.558c36.125 0 68.422 22.909 80.337 57.002a18.347 18.347 0 0 0 13.264 11.808c41.786 9.36 72.142 47.178 72.142 89.918 0 50.801-41.355 92.129-92.145 92.129zm-82.494 154.566c-21.675 9.047-50.629 14.029-81.523 14.029-30.086 0-58.554-4.777-80.068-13.457-17.631-7.08-26.905-15.529-28.792-21.217v-41.7c4.637 2.518 9.651 4.88 15.097 7.068 25.827 10.385 59.093 16.1 93.763 16.1 39.953 0 80.876-7.931 109.129-23.389v40.886c-.917 5.542-9.706 14.229-27.606 21.68zM146.978 200.309c0 10.363 37.095 34.653 109.022 34.653 71.926 0 108.968-24.29 108.968-34.653S327.926 165.656 256 165.656s-109.022 24.29-109.022 34.653zm11.97 54.316a143.964 143.964 0 0 1-11.97-5.645v41.064c1.833 5.688 11.161 14.148 28.792 21.238 21.513 8.675 49.981 13.458 80.068 13.458 30.895 0 59.848-4.988 81.523-14.035 18.062-7.511 26.797-16.267 27.606-21.81V248.98c-3.612 1.936-7.603 3.828-11.97 5.645-26.204 10.902-60.658 16.909-96.998 16.909s-70.847-6.007-97.051-16.909z" clip-rule="evenodd" fill="#2df125" opacity="1" data-original="#000000" class=""></path></g></svg>