<svg xmlns="http://www.w3.org/2000/svg" version="1.1" xmlns:xlink="http://www.w3.org/1999/xlink" width="512" height="512" x="0" y="0" viewBox="0 0 512 512" style="enable-background:new 0 0 512 512" xml:space="preserve" class=""><g><g xmlns:cc="http://creativecommons.org/ns#" xmlns:dc="http://purl.org/dc/elements/1.1/" xmlns:inkscape="http://www.inkscape.org/namespaces/inkscape" xmlns:rdf="http://www.w3.org/1999/02/22-rdf-syntax-ns#" xmlns:sodipodi="http://sodipodi.sourceforge.net/DTD/sodipodi-0.dtd" xmlns:svg="http://www.w3.org/2000/svg" inkscape:version="0.48.1 r9760" sodipodi:docname="twitter_bootstrap_logo.svg"><path d="M276.75 236.34h-85.34v-82.49h85.34c14.22 0 25.1 3.1 32.63 9.2 7.52 6.11 11.29 16.74 11.29 31.79 0 13.39-4.18 23.6-12.55 30.79-8.37 7.2-18.82 10.71-31.37 10.71zM334.05 319.92c0 15.06-4.43 26.77-13.21 34.97-8.7 8.28-21.09 12.38-36.98 12.38h-92.45V273.9h92.45c15.89 0 28.11 3.85 36.98 11.88 8.86 8.03 13.21 19.33 13.21 34.14z" fill="#2df125" opacity="1" data-original="#000000" class=""></path><path d="M426.67 0H85.33C38.4 0 0 38.4 0 85.33v341.34C0 473.6 38.4 512 85.33 512h341.34c46.93 0 85.33-38.4 85.33-85.33V85.33C512 38.4 473.6 0 426.67 0zm-46.6 359.49c-4.19 10.2-10.71 18.99-19.66 26.35-8.95 7.36-20.33 13.22-34.3 17.57-13.97 4.35-30.54 6.52-49.78 6.52h-137.2V111.27h145.15c26.77 0 48.27 6.11 64.42 18.4 16.14 12.3 24.26 30.79 24.26 55.64 0 15.06-3.68 27.94-11.05 38.65-7.36 10.71-17.9 19.07-31.62 24.93v.84c18.41 3.93 32.38 12.63 41.83 26.1 9.45 13.55 14.22 30.45 14.22 50.86 0 11.72-2.09 22.67-6.27 32.8z" fill="#2df125" opacity="1" data-original="#000000" class=""></path></g></g></svg>