<svg xmlns="http://www.w3.org/2000/svg" version="1.1" xmlns:xlink="http://www.w3.org/1999/xlink" width="31.88" height="32" x="0" y="0" viewBox="0 0 463.623 463.623" style="enable-background:new 0 0 512 512" xml:space="preserve" class=""><g><path d="M463.533 116.746V49.318c0-3.667-2.944-6.64-6.578-6.64H6.574C2.946 42.678 0 45.646 0 49.318v86.928c0 .465.046.919.134 1.356v283.343h463.489V116.746h-.09zm-16.504 287.608H16.728V142.881h430.301v261.473zm-258.526-86.21-87.546-45.095V262.86l87.546-45.09v13.013l-73.774 36.979v.383l73.774 36.98v13.019zm174.881-44.899-87.541 44.903V305.13l74.343-36.985v-.377l-74.343-36.975v-13.018l87.541 44.898v10.572zM206.68 349.422h-14.558l60.586-157.474h14.774L206.68 349.422z" fill="#2df125" opacity="1" data-original="#000000" class=""></path></g></svg>